<?xml version="1.0" standalone="no"?>
<!DOCTYPE svg PUBLIC "-//W3C//DTD SVG 20010904//EN"
 "http://www.w3.org/TR/2001/REC-SVG-20010904/DTD/svg10.dtd">
<svg version="1.0" xmlns="http://www.w3.org/2000/svg"
 width="512.000000pt" height="512.000000pt" viewBox="0 0 512.000000 512.000000"
 preserveAspectRatio="xMidYMid meet">

<g transform="translate(0.000000,512.000000) scale(0.100000,-0.100000)"
fill="#000000" stroke="none">
<path d="M2430 5114 c-490 -58 -898 -340 -1112 -769 -91 -182 -125 -324 -135
-561 l-6 -162 -34 -5 c-81 -14 -152 -106 -160 -210 -3 -34 0 -147 6 -250 12
-208 24 -253 84 -315 50 -52 77 -62 168 -62 89 0 160 24 179 61 7 13 6 110 -5
306 -22 424 -23 432 -51 460 -22 22 -24 32 -24 126 0 339 108 610 337 848 486
504 1280 504 1767 -1 227 -236 336 -509 336 -844 0 -95 -1 -101 -27 -128 -30
-32 -29 -20 -54 -518 l-12 -254 -102 -103 c-57 -57 -107 -103 -113 -103 -7 0
-9 11 -6 28 2 15 8 66 13 113 7 70 16 100 50 170 57 116 81 218 88 369 5 120
4 128 -22 194 -26 66 -27 75 -22 195 12 308 -56 559 -204 755 -167 219 -462
346 -809 346 -506 0 -857 -249 -975 -692 -33 -124 -44 -245 -38 -404 6 -126 5
-133 -22 -200 -27 -66 -27 -74 -22 -194 7 -150 31 -253 87 -367 35 -72 42 -97
55 -205 27 -228 63 -324 201 -533 l66 -100 -5 -180 c-3 -99 -10 -196 -16 -215
-15 -49 -92 -121 -181 -168 -41 -22 -156 -70 -255 -107 -672 -249 -943 -431
-1070 -720 -70 -156 -105 -373 -86 -517 14 -103 33 -136 96 -168 l50 -25 2115
0 2115 0 50 25 c29 15 57 38 67 56 47 81 43 316 -7 488 -113 390 -360 579
-1120 861 -99 37 -214 85 -255 107 -89 47 -166 119 -181 168 -6 19 -13 116
-16 215 l-5 180 59 90 c33 50 72 113 88 142 20 35 43 59 70 74 131 73 273 192
355 298 l55 71 58 0 c34 0 74 7 93 16 49 23 102 90 119 149 17 58 40 432 30
484 -17 90 -107 191 -170 191 -21 0 -22 5 -28 163 -7 175 -27 291 -72 417
-193 535 -698 900 -1265 915 -74 2 -151 1 -170 -1z m327 -489 c342 -55 562
-266 639 -610 15 -66 18 -119 16 -303 -2 -187 0 -223 12 -228 52 -20 47 -246
-10 -417 -9 -26 -31 -67 -48 -90 -29 -39 -33 -52 -39 -132 -9 -113 -35 -270
-52 -311 -11 -27 -25 -36 -101 -64 -94 -34 -258 -74 -348 -85 -51 -7 -54 -6
-75 23 -11 17 -41 40 -64 51 -123 60 -267 -20 -284 -156 -16 -136 124 -255
252 -213 43 14 100 62 120 100 12 24 23 29 92 39 70 11 207 42 257 57 13 4 7
-11 -25 -57 l-44 -64 0 -200 c1 -288 23 -367 135 -467 69 -63 257 -155 475
-233 422 -152 707 -310 831 -463 106 -129 165 -307 167 -504 1 -64 -2 -120 -6
-125 -10 -9 -4113 -17 -4164 -8 -30 5 -32 8 -38 68 -14 130 22 305 90 444 111
226 372 394 910 588 88 31 220 86 292 121 161 77 246 152 281 245 30 81 46
241 39 400 l-6 136 -75 114 c-141 216 -166 285 -188 524 -10 111 -15 134 -35
159 -51 61 -86 171 -102 318 -11 96 3 182 33 203 13 10 15 43 14 241 -1 218 0
234 24 326 92 339 314 531 673 581 73 10 268 6 352 -8z m-1517 -1177 c0 -33
19 -394 24 -454 4 -50 3 -52 -22 -57 -38 -8 -69 16 -81 60 -5 21 -13 122 -17
224 -8 221 -1 248 69 249 21 0 27 -5 27 -22z m2713 4 c27 -29 29 -67 18 -267
-13 -215 -20 -235 -76 -235 -18 0 -36 4 -39 8 -3 6 18 473 24 510 1 11 60 -2
73 -16z"/>
</g>
</svg>
