<?xml version="1.0" encoding="UTF-8" standalone="no"?>
<!-- Generator: Adobe Illustrator 16.0.0, SVG Export Plug-In . SVG Version: 6.00 Build 0)  -->

<svg
   version="1.1"
   id="Capa_1"
   x="0px"
   y="0px"
   width="33.49416"
   height="40.139721"
   viewBox="0 0 33.494161 40.139722"
   xml:space="preserve"
   sodipodi:docname="phone-icon.svg"
   inkscape:version="1.1.1 (3bf5ae0d25, 2021-09-20)"
   xmlns:inkscape="http://www.inkscape.org/namespaces/inkscape"
   xmlns:sodipodi="http://sodipodi.sourceforge.net/DTD/sodipodi-0.dtd"
   xmlns="http://www.w3.org/2000/svg"
   xmlns:svg="http://www.w3.org/2000/svg"><defs
   id="defs39" /><sodipodi:namedview
   id="namedview37"
   pagecolor="#ffffff"
   bordercolor="#999999"
   borderopacity="1"
   inkscape:pageshadow="0"
   inkscape:pageopacity="0"
   inkscape:pagecheckerboard="0"
   showgrid="false"
   inkscape:zoom="7.4687357"
   inkscape:cx="17.405891"
   inkscape:cy="10.912155"
   inkscape:window-width="1440"
   inkscape:window-height="837"
   inkscape:window-x="-8"
   inkscape:window-y="-8"
   inkscape:window-maximized="1"
   inkscape:current-layer="g4"
   showborder="true"
   width="400.00098px" />
<g
   id="g4"
   transform="matrix(0.5826976,0.2167348,-0.2167348,0.5826976,-219.38398,-346.48584)"
   style="fill:#00ff00">
	<path
   d="m 582.52053,444.17624 -3.88451,3.8844 c -0.69385,0.69031 -2.7255,1.12674 -2.78629,1.12674 -12.29693,0.1036 -24.13591,-4.72476 -32.83631,-13.42722 -8.72534,-8.72373 -13.55929,-20.6093 -13.42515,-32.94195 0,-0.007 0.44535,-1.98151 1.1375,-2.66827 l 3.88441,-3.88795 c 1.42536,-1.42353 4.15428,-2.06736 6.06609,-1.43074 l 0.81908,0.27538 c 1.91182,0.63663 3.90936,2.74692 4.43874,4.68906 l 1.95645,7.17854 c 0.53109,1.94581 -0.18245,4.71412 -1.60598,6.13764 l -2.59674,2.59674 c 2.54672,9.43913 9.94868,16.83937 19.38243,19.38964 l 2.59673,-2.59686 c 1.42364,-1.42364 4.19917,-2.13535 6.14498,-1.60598 l 7.17865,1.96013 c 1.9386,0.52583 4.04889,2.52153 4.68918,4.43506 l 0.27183,0.81908 c 0.63617,1.91398 -0.007,4.64303 -1.43109,6.06656 z m -19.97257,-24.28975 h 3.66258 c 0,-4.04533 -3.27983,-7.32516 -7.32516,-7.32516 v 3.66259 c 2.01895,0 3.66258,1.64523 3.66258,3.66257 z m 14.65034,0 c 0,-10.1151 -8.19793,-18.31302 -18.31292,-18.31302 v 3.66269 c 8.0798,0 14.65034,6.57409 14.65034,14.65033 z m -18.31292,-29.30077 v 3.66258 c 14.13527,0 25.63808,11.50282 25.63808,25.63819 h 3.66258 c 0,-16.18122 -13.11944,-29.30077 -29.30066,-29.30077 z"
   id="path2"
   style="fill:#ffffff;stroke-width:0.11446" />
</g>
<g
   id="g6"
   transform="translate(-259.13534,-310.55029)">
</g>
<g
   id="g8"
   transform="translate(-259.13534,-310.55029)">
</g>
<g
   id="g10"
   transform="translate(-259.13534,-310.55029)">
</g>
<g
   id="g12"
   transform="translate(-259.13534,-310.55029)">
</g>
<g
   id="g14"
   transform="translate(-259.13534,-310.55029)">
</g>
<g
   id="g16"
   transform="translate(-259.13534,-310.55029)">
</g>
<g
   id="g18"
   transform="translate(-259.13534,-310.55029)">
</g>
<g
   id="g20"
   transform="translate(-259.13534,-310.55029)">
</g>
<g
   id="g22"
   transform="translate(-259.13534,-310.55029)">
</g>
<g
   id="g24"
   transform="translate(-259.13534,-310.55029)">
</g>
<g
   id="g26"
   transform="translate(-259.13534,-310.55029)">
</g>
<g
   id="g28"
   transform="translate(-259.13534,-310.55029)">
</g>
<g
   id="g30"
   transform="translate(-259.13534,-310.55029)">
</g>
<g
   id="g32"
   transform="translate(-259.13534,-310.55029)">
</g>
<g
   id="g34"
   transform="translate(-259.13534,-310.55029)">
</g>
</svg>
