<?xml version="1.0" encoding="UTF-8" standalone="no"?>
<!-- Generated by IcoMoon.io -->

<svg
   version="1.1"
   width="22"
   height="20"
   viewBox="0 0 22 20"
   id="svg6"
   sodipodi:docname="resume-icon.svg"
   inkscape:version="1.1.1 (3bf5ae0d25, 2021-09-20)"
   xmlns:inkscape="http://www.inkscape.org/namespaces/inkscape"
   xmlns:sodipodi="http://sodipodi.sourceforge.net/DTD/sodipodi-0.dtd"
   xmlns="http://www.w3.org/2000/svg"
   xmlns:svg="http://www.w3.org/2000/svg"
   xmlns:rdf="http://www.w3.org/1999/02/22-rdf-syntax-ns#"
   xmlns:cc="http://creativecommons.org/ns#"
   xmlns:dc="http://purl.org/dc/elements/1.1/">
  <defs
     id="defs10" />
  <sodipodi:namedview
     id="namedview8"
     pagecolor="#ffffff"
     bordercolor="#999999"
     borderopacity="1"
     inkscape:pageshadow="0"
     inkscape:pageopacity="0"
     inkscape:pagecheckerboard="0"
     showgrid="false"
     inkscape:zoom="14.9375"
     inkscape:cx="16"
     inkscape:cy="21.389121"
     inkscape:window-width="1366"
     inkscape:window-height="705"
     inkscape:window-x="1432"
     inkscape:window-y="-8"
     inkscape:window-maximized="1"
     inkscape:current-layer="svg6"
     scale-x="1" />
  <title
     id="title2">details-page</title>
  <path
     d="M 2.1924365,0 C 0.9810945,0 9.246e-4,0.9644476 9.246e-4,2.1543268 V 6.4638895 H 19.727305 V 2.1543268 C 19.727305,0.9635386 18.74621,0 17.535793,0 Z m 1.0957559,2.1552358 c 0.6047463,0 1.095756,0.4826783 1.095756,1.0771634 0,0.5944852 -0.4910097,1.0771634 -1.095756,1.0771634 -0.6047463,0 -1.0957559,-0.4826782 -1.0957559,-1.0771634 0,-0.5944851 0.4910096,-1.0771634 1.0957559,-1.0771634 z m 3.2872678,0 c 0.6047463,0 1.0957559,0.4826783 1.0957559,1.0771634 0,0.5944852 -0.4910096,1.0771634 -1.0957559,1.0771634 -0.6047463,0 -1.0957559,-0.4826782 -1.0957559,-1.0771634 0,-0.5944851 0.4910096,-1.0771634 1.0957559,-1.0771634 z m 3.2881922,0 H 17.534868 V 4.3095626 H 9.8636524 Z M 0,8.6191254 v 8.6182156 c 0,1.178062 0.9940401,2.155236 2.1915118,2.155236 H 17.534868 c 1.197472,0 2.191512,-0.977174 2.191512,-2.154327 V 8.6200344 H 17.534868 V 17.23825 H 7.6712161 V 8.6200344 H 0 Z m 9.8636524,0 V 10.773452 H 15.343357 V 8.6191254 Z m 0,4.3086536 v 2.154326 h 5.4797046 v -2.154326 z"
     id="path4"
     style="fill:#999999;stroke-width:0.91681" />
  <metadata
     id="metadata12">
    <rdf:RDF>
      <cc:Work
         rdf:about="">
        <dc:title>details-page</dc:title>
      </cc:Work>
    </rdf:RDF>
  </metadata>
</svg>
