<?xml version="1.0" encoding="UTF-8" standalone="no"?>
<!-- Generator: Adobe Illustrator 16.0.0, SVG Export Plug-In . SVG Version: 6.00 Build 0)  -->

<svg
   version="1.1"
   id="Layer_1"
   x="0px"
   y="0px"
   width="24px"
   height="24px"
   viewBox="0 0 24 24"
   enable-background="new 0 0 24 24"
   xml:space="preserve"
   sodipodi:docname="user.svg"
   inkscape:version="1.1.1 (3bf5ae0d25, 2021-09-20)"
   xmlns:inkscape="http://www.inkscape.org/namespaces/inkscape"
   xmlns:sodipodi="http://sodipodi.sourceforge.net/DTD/sodipodi-0.dtd"
   xmlns="http://www.w3.org/2000/svg"
   xmlns:svg="http://www.w3.org/2000/svg"><defs
   id="defs13" /><sodipodi:namedview
   id="namedview11"
   pagecolor="#ffffff"
   bordercolor="#999999"
   borderopacity="1"
   inkscape:pageshadow="0"
   inkscape:pageopacity="0"
   inkscape:pagecheckerboard="0"
   showgrid="false"
   inkscape:zoom="19.916667"
   inkscape:cx="11.974895"
   inkscape:cy="11.974895"
   inkscape:window-width="1440"
   inkscape:window-height="837"
   inkscape:window-x="-8"
   inkscape:window-y="-8"
   inkscape:window-maximized="1"
   inkscape:current-layer="Layer_1" />
<g
   id="g8"
   style="fill:#999999"
   transform="matrix(0.90415948,0,0,0.83333333,0.1501821,0)">
	<path
   d="m 11.211,13.881 c 0,0 -0.336,0.863 -0.334,0.867 l 0.534,0.758 h 1.178 l 0.534,-0.758 c -0.004,-0.014 -0.334,-0.867 -0.334,-0.867 -0.039,0.006 -1.539,0.006 -1.578,0 z"
   id="path2"
   style="fill:#999999" />
	<path
   d="m 8.178,8.844 c 0.687,2.01 1.981,3.538 3.823,3.538 1.774,0 3.087,-1.506 3.797,-3.513 C 17.231,7.424 16.893,6.344 16.562,5.828 17.34,2.102 14.961,0 11.865,0 6.316,0 7.284,6.08 7.284,6.08 7.29,6.081 7.297,6.081 7.303,6.082 7.049,6.654 6.974,7.616 8.178,8.844 Z M 10.495,4.33 10.09,5.839 c 1.981,-0.604 2.247,-0.936 2.559,-1.163 0.324,-0.235 0.598,-0.474 0.82,-0.691 0.102,0.184 0.231,0.352 0.378,0.504 0.147,0.154 0.364,-1.397 0.364,-1.397 0,0 0.548,0.942 0.624,1.247 0.054,0.216 0.399,1.09 0.586,1.17 -0.07,2.885 -1.364,5.9 -3.42,5.9 -1.915,0 -3.169,-2.615 -3.389,-5.305 C 9.137,6.072 10.495,4.33 10.495,4.33 Z"
   id="path4"
   style="fill:#999999" />
	<path
   d="m 21.95,16.997 c -1.151,-3.028 -3.779,-4.278 -3.814,-4.295 l -2.792,-1.028 -0.369,0.9 0.779,0.287 -2.841,9.375 -0.359,-6.295 H 11.448 L 11.094,22.121 8.284,12.848 9.031,12.574 8.658,11.675 5.9,12.689 5.865,12.704 C 5.83,12.721 3.202,13.971 2.051,16.999 1.817,17.616 1.644,18.307 1.567,19.076 4.042,22.08 7.793,23.998 11.992,24 c 0.006,0 0.012,0 0.019,0 0.227,0 0.452,-0.006 0.676,-0.018 0.005,0 0.01,0 0.015,0 3.917,-0.201 7.394,-2.068 9.733,-4.908 -0.078,-0.769 -0.25,-1.461 -0.485,-2.077 z m -7.199,3.112 c 0.031,0.003 1.994,0.233 3.522,-0.555 v 0.607 c -1.153,0.463 -2.339,0.545 -3.023,0.545 -0.23,0 -0.402,-0.01 -0.499,-0.016 z"
   id="path6"
   style="fill:#999999" />
</g>
</svg>
